<svg xmlns="http://www.w3.org/2000/svg" xmlns:xlink="http://www.w3.org/1999/xlink" width="125" zoomAndPan="magnify" viewBox="0 0 93.75 93.749997" height="125" preserveAspectRatio="xMidYMid meet" version="1.0"><defs><g/></defs><g fill="#38bdf8" fill-opacity="1"><g transform="translate(8.85, 80.249991)"><g><path d="M 24 0.40625 C 20.320312 0.40625 17 -0.5 14.03125 -2.3125 C 11.070312 -4.132812 8.738281 -6.765625 7.03125 -10.203125 C 5.332031 -13.640625 4.484375 -17.707031 4.484375 -22.40625 C 4.484375 -30.507812 6.210938 -38.015625 9.671875 -44.921875 C 13.140625 -51.828125 18.257812 -57.375 25.03125 -61.5625 C 31.8125 -65.75 39.945312 -67.84375 49.4375 -67.84375 C 51.894531 -67.84375 54.519531 -67.65625 57.3125 -67.28125 C 60.113281 -66.90625 62.660156 -66.34375 64.953125 -65.59375 C 66.453125 -65.164062 67.203125 -64.101562 67.203125 -62.40625 C 67.203125 -61.007812 66.679688 -59.695312 65.640625 -58.46875 C 64.597656 -57.25 63.382812 -56.640625 62 -56.640625 C 61.570312 -56.640625 61.253906 -56.664062 61.046875 -56.71875 C 58.265625 -57.363281 55.882812 -57.832031 53.90625 -58.125 C 51.9375 -58.414062 49.863281 -58.5625 47.6875 -58.5625 C 40.90625 -58.5625 35.140625 -56.921875 30.390625 -53.640625 C 25.648438 -50.359375 22.101562 -46.023438 19.75 -40.640625 C 17.40625 -35.253906 16.234375 -29.441406 16.234375 -23.203125 C 16.234375 -18.671875 17.125 -15.160156 18.90625 -12.671875 C 20.695312 -10.191406 23.035156 -8.953125 25.921875 -8.953125 C 29.171875 -8.953125 32.019531 -10.285156 34.46875 -12.953125 C 36.925781 -15.617188 39.164062 -19.9375 41.1875 -25.90625 C 43.21875 -31.882812 45.222656 -39.992188 47.203125 -50.234375 C 47.523438 -51.734375 48.164062 -52.75 49.125 -53.28125 C 50.082031 -53.8125 51.359375 -54.078125 52.953125 -54.078125 C 56.742188 -54.078125 58.640625 -52.851562 58.640625 -50.40625 C 58.640625 -49.976562 58.5625 -49.441406 58.40625 -48.796875 C 57.007812 -43.628906 55.738281 -37.910156 54.59375 -31.640625 C 53.445312 -25.367188 52.875 -20.609375 52.875 -17.359375 C 52.875 -14.484375 53.300781 -12.390625 54.15625 -11.078125 C 55.007812 -9.773438 56.316406 -9.125 58.078125 -9.125 C 59.785156 -9.125 61.410156 -9.695312 62.953125 -10.84375 C 64.503906 -11.988281 66.453125 -13.945312 68.796875 -16.71875 C 69.441406 -17.46875 70.160156 -17.84375 70.953125 -17.84375 C 71.648438 -17.84375 72.195312 -17.519531 72.59375 -16.875 C 73 -16.238281 73.203125 -15.359375 73.203125 -14.234375 C 73.203125 -12.160156 72.695312 -10.507812 71.6875 -9.28125 C 69.070312 -6.132812 66.507812 -3.734375 64 -2.078125 C 61.488281 -0.421875 58.421875 0.40625 54.796875 0.40625 C 51.066406 0.40625 48.050781 -0.671875 45.75 -2.828125 C 43.457031 -4.992188 42.019531 -8.050781 41.4375 -12 C 37.488281 -3.726562 31.675781 0.40625 24 0.40625 Z M 24 0.40625 "/></g></g></g></svg>